<?xml version="1.0" encoding="UTF-8"?>
<svg version="1.1" xmlns="http://www.w3.org/2000/svg" width="1563" height="1563">
<path d="M0 0 C515.79 0 1031.58 0 1563 0 C1563 515.79 1563 1031.58 1563 1563 C1047.21 1563 531.42 1563 0 1563 C0 1047.21 0 531.42 0 0 Z " fill="#837FF9" transform="translate(0,0)"/>
<path d="M0 0 C0.99 0 1.98 0 3 0 C4.32763672 1.6862793 4.32763672 1.6862793 5.6796875 4.07421875 C6.18918945 4.95803223 6.69869141 5.8418457 7.22363281 6.75244141 C8.04105957 8.20529541 8.04105957 8.20529541 8.875 9.6875 C10.05274773 11.73158762 11.23248291 13.77453123 12.4140625 15.81640625 C13.01379883 16.85684082 13.61353516 17.89727539 14.23144531 18.96923828 C16.82110662 23.40712557 19.52644875 27.76842861 22.25 32.125 C27.34277194 40.30257673 32.37744342 48.51401325 37.375 56.75 C37.90738785 57.62733795 37.90738785 57.62733795 38.45053101 58.5223999 C46.01160911 70.98815279 53.51464668 83.48864869 61 96 C67.92276862 84.94067227 74.46675812 73.67065859 81.02441406 62.39208984 C83.03985022 58.931577 85.06110609 55.47455129 87.0859375 52.01953125 C87.60410286 51.13535019 87.60410286 51.13535019 88.13273621 50.23330688 C89.89978771 47.21917609 91.66867455 44.20613505 93.43969727 41.19433594 C96.83574122 35.41614544 100.21918095 29.63165442 103.56004333 23.82133484 C105.11783079 21.11349921 106.68212148 18.40944792 108.24691772 15.70565796 C108.99483657 14.40905621 109.73952697 13.11058647 110.48086548 11.81021118 C111.50784922 10.00932361 112.54561318 8.21507932 113.5859375 6.421875 C114.1742334 5.39674805 114.7625293 4.37162109 115.36865234 3.31542969 C117 1 117 1 120 0 C121.72460945 6.28409193 122.68096881 12.47085837 123.4375 18.9375 C123.56382812 19.97874023 123.69015625 21.01998047 123.8203125 22.09277344 C124.47845807 27.535507 125.11522302 32.98073613 125.75390625 38.42578125 C126.0021409 40.53390877 126.25083649 42.64198206 126.5 44.75 C126.62366943 45.79663818 126.74733887 46.84327637 126.87475586 47.92163086 C127.73752693 55.10727336 128.76032986 62.25522794 129.875 69.40551758 C130.8978765 76.0668676 131.71715533 82.74407613 132.5 89.4375 C133.45598742 97.52667223 134.41848025 105.6140123 135.5 113.6875 C135.65952148 114.96935181 135.65952148 114.96935181 135.82226562 116.27709961 C136.58101182 121.77967341 137.72361474 126.54850818 141.625 130.75 C145.21878338 132.64146494 149.02661511 133.27833821 153 134 C153 134.66 153 135.32 153 136 C134.19 136 115.38 136 96 136 C96 135.34 96 134.68 96 134 C97.11375 133.71125 98.2275 133.4225 99.375 133.125 C103.00291092 132.30758671 103.00291092 132.30758671 105 130 C105.94460112 122.43923099 104.55256475 114.43389926 103.72265625 106.9140625 C103.52644936 105.08504898 103.52644936 105.08504898 103.32627869 103.21908569 C103.05052619 100.65896781 102.77221068 98.09912482 102.49145508 95.53955078 C102.06160824 91.61686195 101.64052964 87.69330389 101.22070312 83.76953125 C100.95103414 81.2759861 100.6808693 78.78249452 100.41015625 76.2890625 C100.28407486 75.11614655 100.15799347 73.94323059 100.02809143 72.73477173 C99.90804245 71.64618866 99.78799347 70.55760559 99.66430664 69.43603516 C99.5599379 68.48024567 99.45556915 67.52445618 99.34803772 66.53970337 C99.04038577 64.29470337 98.60249689 62.18175781 98 60 C91.80548262 70.17310985 85.8151269 80.45869109 79.8894043 90.79052734 C76.64553993 96.44076258 73.37432436 102.07027684 70.02734375 107.66015625 C69.39272217 108.7262915 68.75810059 109.79242676 68.10424805 110.89086914 C66.90491557 112.90186309 65.69727919 114.90793788 64.47973633 116.90795898 C60.04928467 124.36408495 57.63716584 131.51820721 56 140 C55.01 140 54.02 140 53 140 C51.28930664 137.65527344 51.28930664 137.65527344 49.41015625 134.359375 C49.06996964 133.7705101 48.72978302 133.1816452 48.37928772 132.57493591 C47.26354939 130.6389232 46.16333609 128.69451815 45.0625 126.75 C44.28822727 125.40201424 43.51266467 124.05476859 42.73583984 122.70825195 C41.18845968 120.02524943 39.64528975 117.33989934 38.10498047 114.65283203 C35.50493225 110.12799543 32.82756756 105.65172321 30.125 101.1875 C24.62428796 92.06677955 19.18523211 82.90982813 13.75 73.75 C13.31528381 73.01743988 12.88056763 72.28487976 12.43267822 71.53012085 C9.95449298 67.35378492 7.47696637 63.17705894 5 59 C4.208804 66.18913505 3.42592692 73.37912762 2.65309143 80.570261 C2.29381868 83.91090213 1.93108647 87.25108022 1.56347656 90.59082031 C1.13940663 94.44783731 0.7250927 98.30580287 0.3125 102.1640625 C0.18125732 103.33860992 0.05001465 104.51315735 -0.08520508 105.72329712 C-2.34624798 119.90699059 -2.34624798 119.90699059 1 133 C4.56769552 133.73606499 4.56769552 133.73606499 8 134 C8 134.66 8 135.32 8 136 C-5.53 136 -19.06 136 -33 136 C-33 135.34 -33 134.68 -33 134 C-32.19175781 133.87625 -31.38351562 133.7525 -30.55078125 133.625 C-29.48214844 133.41875 -28.41351562 133.2125 -27.3125 133 C-26.25675781 132.814375 -25.20101562 132.62875 -24.11328125 132.4375 C-19.68092648 130.39094221 -18.06463112 127.33722103 -16 123 C-15.15182193 119.91917078 -14.81153275 116.8765811 -14.5234375 113.69921875 C-14.42664703 112.82336624 -14.32985657 111.94751373 -14.23013306 111.04512024 C-13.92596975 108.26089063 -13.64929719 105.47481502 -13.375 102.6875 C-12.99458292 99.0447477 -12.60325476 95.40320621 -12.2109375 91.76171875 C-12.11592453 90.86167618 -12.02091156 89.96163361 -11.92301941 89.03431702 C-11.18308304 82.19486048 -10.17536968 75.42318285 -9.05918884 68.63623047 C-7.94797939 61.84190891 -7.14034444 55.03612307 -6.4375 48.1875 C-5.46312509 39.08870632 -4.36909105 30.04790604 -3 21 C-2.45296199 17.20909761 -1.91428595 13.41701185 -1.375 9.625 C-1.11211061 7.78383539 -0.84910077 5.94268798 -0.5859375 4.1015625 C-0.41650635 2.91554443 -0.41650635 2.91554443 -0.24365234 1.70556641 C-0.16324707 1.14272949 -0.0828418 0.57989258 0 0 Z " fill="#FCFCFE" transform="translate(909,580)"/>
<path d="M0 0 C2.97816718 1.42432416 4.97931682 2.77903265 7.25 5.1875 C9.58085498 7.59180629 11.93810095 9.84466319 14.5 12 C18.71534396 15.62256122 22.59188912 19.55361184 26.5 23.5 C32.08543913 29.17500865 32.08543913 29.17500865 38 34.5 C42.79435579 38.53735225 47.10305756 43.07976083 51.50952148 47.52905273 C55.16846971 51.20992998 58.87740091 54.7216616 62.84765625 58.06640625 C66.67650918 61.50611986 70.2392239 65.22072106 73.85864258 68.87817383 C77.4233315 72.46590099 81.04487376 75.89604141 84.91796875 79.15234375 C87.4590507 81.4073752 89.84003544 83.79308485 92.234375 86.203125 C93.12866211 87.10192383 94.02294922 88.00072266 94.94433594 88.92675781 C95.62270508 89.61092773 96.30107422 90.29509766 97 91 C97.09271028 80.91649582 97.16377023 70.83309316 97.20724869 60.74924946 C97.22811702 56.06681061 97.25642081 51.38466352 97.30175781 46.70239258 C97.3452426 42.18309349 97.36914278 37.66407491 97.37950897 33.14458275 C97.38689563 31.42098767 97.40132019 29.69740782 97.42292023 27.97393227 C97.45198994 25.5582127 97.45595463 23.14364975 97.45410156 20.7277832 C97.46848267 20.01640198 97.48286377 19.30502075 97.49768066 18.57208252 C97.45786309 13.76979842 96.37176882 11.3883271 93 8 C89.6312863 5.67674917 86.00518216 5.4621364 82 5 C82 4.34 82 3.68 82 3 C101.47 3 120.94 3 141 3 C141 3.66 141 4.32 141 5 C139.98679687 5.14695312 139.98679687 5.14695312 138.953125 5.296875 C133.34676897 6.19775938 133.34676897 6.19775938 128.4375 8.875 C126.14380236 12.26568346 125.87500642 15.39987236 125.87301636 19.42875671 C125.87019653 20.31000214 125.86737671 21.19124756 125.86447144 22.09919739 C125.86649567 23.05863754 125.8685199 24.0180777 125.87060547 25.0065918 C125.86885315 26.02350098 125.86710083 27.04041016 125.86529541 28.08813477 C125.86088664 31.45851336 125.86381434 34.8288396 125.8671875 38.19921875 C125.8665135 40.55174266 125.86554268 42.90426649 125.86428833 45.25679016 C125.86281212 50.19895081 125.86496097 55.14109341 125.86962891 60.08325195 C125.87528549 66.37478696 125.87207276 72.66627893 125.86605644 78.95781231 C125.86241387 83.82500014 125.86360695 88.69217807 125.86618423 93.55936623 C125.86684545 95.87587298 125.86605366 98.19238068 125.86370468 100.50888634 C125.85353184 113.37769866 126.03327585 126.16434245 127 139 C123.90049858 137.51458141 121.67023318 135.96170387 119.171875 133.5859375 C118.45386719 132.90660156 117.73585938 132.22726562 116.99609375 131.52734375 C115.88427734 130.46193359 115.88427734 130.46193359 114.75 129.375 C114.02425781 128.68792969 113.29851562 128.00085938 112.55078125 127.29296875 C108.23344038 123.19111014 103.99454532 119.02088891 99.81469727 114.77905273 C97.99970912 112.99971484 96.12219916 111.33509107 94.1875 109.6875 C90.79804373 106.7774953 87.63548893 103.67839675 84.5 100.5 C81.44663047 97.40507389 78.37676245 94.38065663 75.0625 91.5625 C70.95573465 88.06289503 67.21275194 84.24017991 63.42431641 80.40478516 C60.09433671 77.04955443 56.66077511 73.90282125 53.05859375 70.83984375 C50.43501564 68.49505193 47.97006955 66.00372173 45.5 63.5 C41.64887038 59.60602053 37.73029042 55.88708686 33.55859375 52.33984375 C32.32496821 51.27935864 31.15031749 50.15031749 30 49 C29.93046441 58.95315449 29.87717063 68.90625111 29.84456348 78.85959911 C29.82891303 83.48143791 29.80768607 88.10311042 29.77368164 92.72485352 C29.74106608 97.18578537 29.72314232 101.64655736 29.71536827 106.10759926 C29.70982871 107.80884632 29.69901124 109.51008472 29.68280983 111.21126366 C29.66100609 113.59570544 29.65803426 115.9794881 29.65942383 118.36401367 C29.648638 119.06604416 29.63785217 119.76807465 29.6267395 120.49137878 C29.66021918 125.8069212 31.03143877 128.9585291 34.6875 132.75 C38.07383237 134.58044993 41.17413507 134.68117792 45 135 C45 135.66 45 136.32 45 137 C25.53 137 6.06 137 -14 137 C-14 136.34 -14 135.68 -14 135 C-13.00419922 134.88785156 -13.00419922 134.88785156 -11.98828125 134.7734375 C-11.10527344 134.64195312 -10.22226562 134.51046875 -9.3125 134.375 C-8.44238281 134.25898437 -7.57226562 134.14296875 -6.67578125 134.0234375 C-2.95658319 132.60091211 -0.85695297 130.44765246 1 127 C1.70853345 123.38437071 1.64299856 119.84238278 1.58349609 116.16796875 C1.58583252 115.08742722 1.58816895 114.00688568 1.59057617 112.89360046 C1.59218965 109.32440714 1.5581469 105.75651009 1.5234375 102.1875 C1.51664318 99.69613104 1.51192394 97.20475563 1.50918579 94.71337891 C1.49713898 88.81911709 1.46214752 82.9253292 1.41663706 77.03123856 C1.37179682 71.03385248 1.35465837 65.03662276 1.34119225 59.03907776 C1.32631507 52.65101842 1.30116831 46.26301505 1.2734375 39.875 C1.26852673 38.67015961 1.26361595 37.46531921 1.25855637 36.22396851 C1.18621803 18.08899391 1.18621803 18.08899391 0 0 Z " fill="#FDFDFE" transform="translate(522,580)"/>
<path d="M0 0 C3 1 3 1 4.66308594 3.98632812 C5.28100213 5.32971121 5.88721378 6.67851314 6.484375 8.03125 C6.8164949 8.76095001 7.14861481 9.49065002 7.49079895 10.24246216 C8.58709424 12.65729769 9.66843864 15.07853399 10.75 17.5 C11.51454575 19.19104395 12.28010167 20.88163153 13.04663086 22.57177734 C14.61649363 26.03726651 16.18060699 29.50525913 17.73974609 32.97558594 C19.77887862 37.51287463 21.83249574 42.0433928 23.89453125 46.5703125 C24.20088501 47.24296646 24.50723877 47.91562042 24.82287598 48.60865784 C25.43317903 49.94864157 26.04350998 51.2886126 26.65386963 52.62857056 C27.87425558 55.30998483 29.09145983 57.9928382 30.30871582 60.67567444 C33.25436813 67.16729567 36.21013324 73.65420719 39.17578125 80.13671875 C39.52443237 80.89894241 39.8730835 81.66116608 40.2322998 82.44648743 C41.95882537 86.2201483 43.68698517 89.99305046 45.41748047 93.76489258 C48.26285698 99.97193532 51.09633756 106.18106141 53.83203125 112.4375 C54.23953613 113.36522217 54.64704102 114.29294434 55.06689453 115.2487793 C55.77844177 116.87665675 56.48218381 118.50798583 57.17529297 120.14379883 C59.44991578 125.34199851 62.00717323 130.27787063 67.09765625 133.20703125 C67.74605469 133.40683594 68.39445313 133.60664062 69.0625 133.8125 C69.71347656 134.02519531 70.36445312 134.23789062 71.03515625 134.45703125 C73.01622666 135.00448411 75.00272757 135.51513876 77 136 C77 136.66 77 137.32 77 138 C56.87 138 36.74 138 16 138 C16 137.34 16 136.68 16 136 C19.96 135.01 19.96 135.01 24 134 C24.59951776 126.2385348 23.14353578 120.61952541 20 113.5625 C19.24570715 111.81564949 18.49550985 110.06702313 17.75 108.31640625 C17.24726562 107.17860718 17.24726562 107.17860718 16.734375 106.01782227 C16 104 16 104 16 101 C1.15 101.33 -13.7 101.66 -29 102 C-31.5059375 107.7234375 -31.5059375 107.7234375 -34.0625 113.5625 C-34.59367432 114.75174072 -35.12484863 115.94098145 -35.67211914 117.16625977 C-39.0421983 124.91271038 -39.0421983 124.91271038 -38 133 C-35.4345406 135.5654594 -33.52313332 135.54046087 -30 136 C-30 136.66 -30 137.32 -30 138 C-43.53 138 -57.06 138 -71 138 C-71 137.34 -71 136.68 -71 136 C-70.33613281 135.84144531 -69.67226563 135.68289063 -68.98828125 135.51953125 C-68.10527344 135.28621094 -67.22226562 135.05289063 -66.3125 134.8125 C-65.44238281 134.59207031 -64.57226562 134.37164063 -63.67578125 134.14453125 C-57.71310787 131.59407388 -54.8775276 126.49645988 -52.20703125 120.86328125 C-51.86823441 120.16672928 -51.52943756 119.47017731 -51.18037415 118.7525177 C-47.12600355 110.33146219 -43.40618575 101.76041255 -39.6875 93.1875 C-38.51491707 90.4975247 -37.34076929 87.80823592 -36.16651917 85.11898804 C-35.35423243 83.25853569 -34.5424178 81.39787715 -33.73106384 79.53701782 C-30.81428051 72.8505825 -27.87490002 66.17440934 -24.921875 59.50390625 C-24.5033577 58.5584343 -24.08484039 57.61296234 -23.65364075 56.63883972 C-22.02719478 52.96576729 -20.40012947 49.2929714 -18.77133179 45.62094116 C-16.16876713 39.75258822 -13.57632045 33.87992554 -11 28 C-10.39106903 26.61035034 -10.39106903 26.61035034 -9.76983643 25.19262695 C-8.52981499 22.35475019 -7.29698614 19.513857 -6.06640625 16.671875 C-5.49937233 15.37470551 -5.49937233 15.37470551 -4.92088318 14.05133057 C-2.92460576 9.41789421 -1.25888629 4.88719849 0 0 Z " fill="#FCFCFE" transform="translate(734,579)"/>
<path d="M0 0 C19.47 0 38.94 0 59 0 C59 0.66 59 1.32 59 2 C58.38511719 2.13277344 57.77023437 2.26554688 57.13671875 2.40234375 C55.92435547 2.66724609 55.92435547 2.66724609 54.6875 2.9375 C53.88699219 3.11152344 53.08648438 3.28554688 52.26171875 3.46484375 C49.854599 3.99886159 49.854599 3.99886159 47 5 C45.17975121 8.46934178 44.74988778 11.38484106 44.7484436 15.26600647 C44.74036934 16.82795746 44.74036934 16.82795746 44.73213196 18.42146301 C44.73625595 19.55347641 44.74037994 20.68548981 44.74462891 21.85180664 C44.73919823 23.65278305 44.73919823 23.65278305 44.73365784 25.49014282 C44.72496654 28.77777375 44.72474791 32.06529033 44.7270093 35.35292745 C44.72625949 38.80534323 44.7111786 42.25768711 44.69662476 45.71006775 C44.64969819 57.46122673 44.6256808 69.2123745 44.61914062 80.96362305 C44.61537394 87.45756354 44.59721337 93.95131209 44.56404626 100.44517034 C44.54723984 103.87507593 44.53794653 107.30463263 44.54698563 110.73457527 C44.55409308 114.57081833 44.53669512 118.40626382 44.51416016 122.24243164 C44.52233261 123.36027542 44.53050507 124.4781192 44.53892517 125.62983704 C44.39635463 139.35386374 39.53143718 150.13821521 30.375 160.1875 C20.65993796 169.529623 8.8533024 172.26063215 -4.18359375 172.0703125 C-5.11300781 172.04710937 -6.04242187 172.02390625 -7 172 C-7 171.01 -7 170.02 -7 169 C-5.3203125 167.61328125 -5.3203125 167.61328125 -3.125 166.3125 C-2.40570312 165.87550781 -1.68640625 165.43851563 -0.9453125 164.98828125 C1 164 1 164 3 164 C3.38671875 163.21109375 3.38671875 163.21109375 3.78125 162.40625 C4.70764253 160.57721859 5.67318013 158.76795334 6.65625 156.96875 C7.56890625 155.25171875 7.56890625 155.25171875 8.5 153.5 C9.1084375 152.3759375 9.716875 151.251875 10.34375 150.09375 C14.39875199 141.20935246 14.29836183 130.91580856 14.29052734 121.33422852 C14.29724457 120.13106491 14.30396179 118.92790131 14.31088257 117.6882782 C14.32648648 114.42838607 14.33322871 111.16864791 14.33451414 107.90872312 C14.33594538 105.86767018 14.34023268 103.82664326 14.34550858 101.78559685 C14.36392723 94.65400389 14.37218763 87.52248511 14.37060547 80.39086914 C14.36939939 73.75704455 14.39061342 67.12354281 14.4220928 60.48980004 C14.44824442 54.77401285 14.45897357 49.05833145 14.45769465 43.34248489 C14.45718561 39.93692744 14.46283932 36.53165903 14.48405075 33.12616158 C14.50359514 29.3371676 14.49791955 25.54901663 14.48583984 21.76000977 C14.50269836 20.07601578 14.50269836 20.07601578 14.51989746 18.35800171 C14.50266215 12.29432624 14.50266215 12.29432624 12.08682251 6.84312439 C8.25562103 3.45932876 5.04806023 2.68837185 0 2 C0 1.34 0 0.68 0 0 Z " fill="#FDFDFE" transform="translate(813,583)"/>
<path d="M0 0 C0.70125 0.144375 1.4025 0.28875 2.125 0.4375 C2.66103819 1.82756515 3.17817473 3.22492649 3.6875 4.625 C3.97753906 5.40230469 4.26757812 6.17960938 4.56640625 6.98046875 C5.125 9.4375 5.125 9.4375 4.66601562 11.6640625 C4.03034138 14.92275356 4.01271819 17.94952804 4.02734375 21.26953125 C4.03217773 23.20795898 4.03217773 23.20795898 4.03710938 25.18554688 C4.04546335 26.54036526 4.05392828 27.89518297 4.0625 29.25 C4.06752 30.62434735 4.07208203 31.99869645 4.07617188 33.37304688 C4.08794332 36.72790924 4.10438717 40.08268221 4.125 43.4375 C4.785 43.4375 5.445 43.4375 6.125 43.4375 C6.39054687 42.84839844 6.65609375 42.25929688 6.9296875 41.65234375 C10.21639931 35.5622601 16.71581988 30.00117205 23.125 27.4375 C29.20149088 26.23315046 34.0122984 26.95975777 39.4375 29.9375 C43.97997957 33.0359645 47.86619949 36.33186413 50.125 41.4375 C50.86622121 45.75624808 50.05266619 48.93998173 47.7578125 52.64453125 C43.90203966 57.43315235 39.81519359 60.23901611 34.125 62.4375 C33.196875 62.83195313 33.196875 62.83195313 32.25 63.234375 C16.56618045 69.23833717 -0.3807572 68.81427204 -16.875 68.4375 C-16.875 64.4775 -16.875 60.5175 -16.875 56.4375 C-14.956875 56.355 -13.03875 56.2725 -11.0625 56.1875 C-6.63573188 56.11531979 -6.63573188 56.11531979 -3.15209961 53.73999023 C-1.48330748 50.7313153 -1.83301055 49.32817212 -2.5234375 45.98828125 C-2.73323242 44.92689941 -2.94302734 43.86551758 -3.15917969 42.77197266 C-3.39540039 41.67159668 -3.63162109 40.5712207 -3.875 39.4375 C-4.19452637 37.85074463 -4.19452637 37.85074463 -4.52050781 36.23193359 C-5.38787177 31.93394117 -6.2837756 27.64234793 -7.1953125 23.35351562 C-10.0161092 9.66089833 -10.0161092 9.66089833 -7.73828125 5.22265625 C-3.5187425 0.53546082 -3.5187425 0.53546082 0 0 Z " fill="#F6ECF3" transform="translate(1069.875,801.5625)"/>
<path d="M0 0 C4.27661678 4.27661678 5.71503975 10.34967604 7.65625 15.9765625 C9.05656868 19.12727953 10.34867476 20.82795279 13 23 C13.99 23.33 14.98 23.66 16 24 C16 27.96 16 31.92 16 36 C9.375 35.25 9.375 35.25 6 33 C5.67 34.32 5.34 35.64 5 37 C-4.78236323 37.60509463 -12.01794984 36.48743511 -20.125 30.8125 C-22.74729365 26.87905952 -22.45030252 23.59308571 -22 19 C-23.98 20.32 -25.96 21.64 -28 23 C-27.84853516 23.92748047 -27.69707031 24.85496094 -27.54101562 25.81054688 C-26.97690552 29.28372939 -26.41848234 32.75773102 -25.86376953 36.23242188 C-25.6234963 37.73017874 -25.38102487 39.22758481 -25.13623047 40.72460938 C-24.78280886 42.88841515 -24.43756536 45.05339959 -24.09375 47.21875 C-23.88427734 48.51748047 -23.67480469 49.81621094 -23.45898438 51.15429688 C-22.97462481 55.2126117 -22.80519634 58.91954931 -23 63 C-24.6796875 64.875 -24.6796875 64.875 -26.875 66 C-27.59429687 66.391875 -28.31359375 66.78375 -29.0546875 67.1875 C-31 68 -31 68 -33 68 C-36.59305363 22.97693569 -36.59305363 22.97693569 -31.94140625 15.2109375 C-24.59932504 6.84953315 -11.46885039 -1.94387295 0 0 Z " fill="#F6EDF3" transform="translate(480,834)"/>
<path d="M0 0 C2.82970515 1.53064613 5.61155408 3.12036894 8.3828125 4.75390625 C16.30773644 9.37907963 23.89051341 10.45088223 32.9375 11.3125 C31.8116386 14.85092155 30.60655241 17.97439518 28.9375 21.3125 C32.2375 21.6425 35.5375 21.9725 38.9375 22.3125 C38.9375 26.2725 38.9375 30.2325 38.9375 34.3125 C31.61359843 34.59062284 25.67789758 34.33784124 18.9375 31.3125 C17.9375 30.3125 17.9375 30.3125 17.8125 26.875 C17.9375 23.3125 17.9375 23.3125 18.9375 21.3125 C11.44922858 24.00303949 4.42031621 26.91126592 -2.4296875 30.98046875 C-8.76456674 34.18550409 -14.56672614 34.58275795 -21.5 34.4375 C-22.32693359 34.42847656 -23.15386719 34.41945313 -24.00585938 34.41015625 C-26.02486708 34.38681512 -28.04372356 34.35095288 -30.0625 34.3125 C-30.0625 30.3525 -30.0625 26.3925 -30.0625 22.3125 C-28.12310547 22.16554688 -28.12310547 22.16554688 -26.14453125 22.015625 C-15.9429541 21.16516622 -6.7015861 19.93595207 2.9375 16.3125 C-2.46954149 11.97447245 -6.63734381 10.77360335 -13.546875 10.94140625 C-16.12224174 11.32131283 -17.77825304 12.1175893 -20.0625 13.3125 C-21.0525 13.3125 -22.0425 13.3125 -23.0625 13.3125 C-24.67214787 10.09320427 -24.66936242 6.79362288 -24.0625 3.3125 C-17.63796031 -4.84840176 -8.70632258 -4.34202789 0 0 Z " fill="#F7EEF2" transform="translate(546.0625,835.6875)"/>
<path d="M0 0 C6.27821238 29.97595949 6.27821238 29.97595949 1 39 C-3.92132399 45.9218622 -10.42416439 51.46472382 -19 53 C-21.28869404 53.14338806 -23.58200956 53.22041303 -25.875 53.25 C-27.66550781 53.28867187 -27.66550781 53.28867187 -29.4921875 53.328125 C-34.2301549 52.88492983 -37.45568469 51.19132895 -41.1875 48.3125 C-46.20142317 41.91542561 -46.86591196 34.85981625 -46 27 C-45.21959161 23.89630686 -44.22565044 20.95469303 -43 18 C-41.68 18 -40.36 18 -39 18 C-39.03480469 19.16015625 -39.03480469 19.16015625 -39.0703125 20.34375 C-39.17928906 26.63325438 -38.85126093 31.98340199 -37 38 C-28.7189942 40.94435762 -20.59869831 40.94956183 -12.265625 38.14453125 C-8.923217 36.45603893 -5.99676367 34.2338067 -3 32 C-3.58910156 30.85402344 -4.17820312 29.70804688 -4.78515625 28.52734375 C-5.54520629 26.99786034 -6.30426904 25.46788603 -7.0625 23.9375 C-7.45244141 23.18533203 -7.84238281 22.43316406 -8.24414062 21.65820312 C-10.66362029 16.71218718 -11.56701344 13.51533987 -10 8 C-7.93969897 4.34630069 -4.44591667 0 0 0 Z " fill="#F7EDF2" transform="translate(852,844)"/>
<path d="M0 0 C2.56098465 1.28049232 2.65965813 2.1814867 3.67993164 4.8137207 C3.99688492 5.62158524 4.3138382 6.42944977 4.64039612 7.26179504 C4.97691696 8.14091049 5.31343781 9.02002594 5.66015625 9.92578125 C6.0100914 10.82491745 6.36002655 11.72405365 6.7205658 12.6504364 C7.4609387 14.55662631 8.19795046 16.46412454 8.93188477 18.37280273 C10.05477324 21.29240976 11.18756016 24.20801492 12.32226562 27.12304688 C13.03964859 28.97373125 13.75646413 30.8246357 14.47265625 32.67578125 C14.81120132 33.54882401 15.1497464 34.42186676 15.49855042 35.32136536 C15.81235153 36.13868637 16.12615265 36.95600739 16.44946289 37.7980957 C16.72544815 38.51455765 17.00143341 39.23101959 17.28578186 39.9691925 C17.97915208 41.94072103 18.49312451 43.97249803 19 46 C6.46 46 -6.08 46 -19 46 C-12.87852519 30.56698604 -6.63506294 15.2189026 0 0 Z " fill="#8581F5" transform="translate(727,626)"/>
<path d="M0 0 C1.17400588 3.43503772 2.33793209 6.87340714 3.5 10.3125 C3.83386719 11.28896484 4.16773438 12.26542969 4.51171875 13.27148438 C4.82753906 14.20927734 5.14335938 15.14707031 5.46875 16.11328125 C5.76201172 16.97735596 6.05527344 17.84143066 6.35742188 18.73168945 C7 21 7 21 7 24 C11.455 24.99 11.455 24.99 16 26 C16 29.96 16 33.92 16 38 C10 38 10 38 8 37 C7.8040625 37.61746094 7.608125 38.23492188 7.40625 38.87109375 C4.52802122 47.02193992 0.17488301 53.06869917 -6.9375 58.0625 C-12.40680601 59.73677735 -16.56434494 60.29007154 -21.765625 57.53515625 C-28.72172711 52.83481868 -28.72172711 52.83481868 -30 49 C-29.67 48.34 -29.34 47.68 -29 47 C-28.23816406 47.02320313 -27.47632813 47.04640625 -26.69140625 47.0703125 C-15.01102437 47.41800422 -15.01102437 47.41800422 -4.625 42.75 C-1.87523963 39.86929866 -0.23724272 37.78905584 1 34 C-0.12330599 29.54360574 -2.02254815 26.11447385 -4.5625 22.3125 C-8.03666546 17.09041762 -9.85423886 13.40679144 -9 7 C-3.80776699 0 -3.80776699 0 0 0 Z " fill="#F8EFF2" transform="translate(960,832)"/>
<path d="M0 0 C0.70133599 1.57725347 1.385583 3.16211333 2.0625 4.75 C2.44535156 5.63171875 2.82820312 6.5134375 3.22265625 7.421875 C4.05073704 10.1682736 4.03750724 11.36769592 3 14 C2.67 14.33 2.34 14.66 2 15 C1.87709282 16.65644366 1.82216092 18.31798993 1.79467773 19.97875977 C1.77473251 21.03978409 1.75478729 22.10080841 1.73423767 23.19398499 C1.71752518 24.348134 1.70081268 25.50228302 1.68359375 26.69140625 C1.66281265 27.86638168 1.64203156 29.04135712 1.62062073 30.25193787 C1.55499876 34.02206324 1.4961817 37.79226082 1.4375 41.5625 C1.3943268 44.11133573 1.35071292 46.66016403 1.30664062 49.20898438 C1.19930455 55.47257892 1.0975621 61.73624601 1 68 C-1.64 68 -4.28 68 -7 68 C-7.57794808 61.27868214 -8.14653307 54.5566166 -8.70898438 47.83398438 C-8.90090089 45.55288276 -9.09486528 43.27195239 -9.29101562 40.99121094 C-12.20821194 7.02671104 -12.20821194 7.02671104 -9.8449707 3.0625 C-6.72294211 0.13395063 -4.08368848 -0.18087888 0 0 Z " fill="#F8EEF1" transform="translate(720,802)"/>
<path d="M0 0 C1.24764064 10.71520201 1.21997457 21.45585023 1.24023438 32.22900391 C1.25004223 35.38860417 1.28119409 38.54758009 1.3125 41.70703125 C1.31902242 43.72916286 1.32427587 45.75129904 1.328125 47.7734375 C1.3404718 48.71101898 1.3528186 49.64860046 1.36553955 50.61459351 C1.3434581 57.10246554 0.32595374 61.40040465 -4.125 66.375 C-8.25408881 68.70883281 -11.29876279 68.28067088 -16 68 C-16 64.04 -16 60.08 -16 56 C-12.37 55.34 -8.74 54.68 -5 54 C-6.61894486 42.00509038 -8.42988676 30.08416863 -10.72949219 18.19873047 C-10.89481445 17.32877441 -11.06013672 16.45881836 -11.23046875 15.5625 C-11.37895264 14.80066406 -11.52743652 14.03882813 -11.68041992 13.25390625 C-12.03248134 10.77091848 -12.19405068 8.50322746 -12 6 C-9.8828125 4.19921875 -9.8828125 4.19921875 -7.125 2.6875 C-6.22007812 2.17574219 -5.31515625 1.66398438 -4.3828125 1.13671875 C-2 0 -2 0 0 0 Z " fill="#F4EBF4" transform="translate(672,802)"/>
<path d="M0 0 C3.67561762 9.53168636 3.67561762 9.53168636 2 14 C1.67 14.33 1.34 14.66 1 15 C0.87709282 16.65644366 0.82216092 18.31798993 0.79467773 19.97875977 C0.77473251 21.03978409 0.75478729 22.10080841 0.73423767 23.19398499 C0.71752518 24.348134 0.70081268 25.50228302 0.68359375 26.69140625 C0.66281265 27.86638168 0.64203156 29.04135712 0.62062073 30.25193787 C0.55499876 34.02206324 0.4961817 37.79226082 0.4375 41.5625 C0.3943268 44.11133573 0.35071292 46.66016403 0.30664062 49.20898438 C0.19930455 55.47257892 0.0975621 61.73624601 0 68 C-2.31 68 -4.62 68 -7 68 C-11.04092635 27.50475936 -11.04092635 27.50475936 -11.375 11.625 C-11.40335938 10.42101562 -11.43171875 9.21703125 -11.4609375 7.9765625 C-10.90013943 4.35513769 -9.84294747 3.22996995 -7 1 C-4.53721199 -0.231394 -2.7204945 -0.07159196 0 0 Z " fill="#F8EFF2" transform="translate(902,802)"/>
<path d="M0 0 C1.0725 0.103125 2.145 0.20625 3.25 0.3125 C2.57829194 4.1188457 1.52253436 7.66456816 0.25 11.3125 C5.2 12.7975 5.2 12.7975 10.25 14.3125 C10.25 18.2725 10.25 22.2325 10.25 26.3125 C3.60415281 25.96271857 0.41335173 24.50772328 -4.75 20.3125 C-5.430625 20.93125 -6.11125 21.55 -6.8125 22.1875 C-13.69844848 27.16882443 -20.52758805 26.4972733 -28.75 26.3125 C-28.75 22.3525 -28.75 18.3925 -28.75 14.3125 C-27.71359375 14.17972656 -26.6771875 14.04695312 -25.609375 13.91015625 C-24.23956735 13.73189361 -22.86977656 13.55350138 -21.5 13.375 C-20.81808594 13.28798828 -20.13617187 13.20097656 -19.43359375 13.11132812 C-14.50269459 12.5878138 -14.50269459 12.5878138 -9.75 11.3125 C-9.02954236 9.3312415 -8.36998741 7.32745907 -7.75 5.3125 C-5.40351224 1.31478011 -4.71627692 0.39302308 0 0 Z " fill="#F7EDF3" transform="translate(1023.75,843.6875)"/>
<path d="M0 0 C3.04964823 1.52482411 3.47099797 3.91770811 4.8203125 7.00390625 C5.21559647 7.90072365 5.21559647 7.90072365 5.61886597 8.81565857 C6.46036805 10.72865292 7.2927566 12.6454621 8.125 14.5625 C8.69341528 15.85898505 9.26241839 17.15521254 9.83203125 18.45117188 C11.22819129 21.63115263 12.6162039 24.81461633 14 28 C15.98 28 17.96 28 20 28 C20.0867562 23.70845978 20.1403089 19.41714332 20.1875 15.125 C20.21263672 13.90167969 20.23777344 12.67835938 20.26367188 11.41796875 C20.27817383 9.66806641 20.27817383 9.66806641 20.29296875 7.8828125 C20.31653442 6.26463623 20.31653442 6.26463623 20.34057617 4.61376953 C20.22818604 3.75122559 20.1157959 2.88868164 20 2 C19.01 1.34 18.02 0.68 17 0 C21.29 0 25.58 0 30 0 C29.34 0.66 28.68 1.32 28 2 C27.6884317 4.68526618 27.6884317 4.68526618 27.734375 7.8125 C27.73179688 8.97007812 27.72921875 10.12765625 27.7265625 11.3203125 C27.73816406 13.14175781 27.73816406 13.14175781 27.75 15 C27.74226563 16.21429687 27.73453125 17.42859375 27.7265625 18.6796875 C27.73042969 20.41605469 27.73042969 20.41605469 27.734375 22.1875 C27.73663086 23.25355469 27.73888672 24.31960938 27.74121094 25.41796875 C27.74119202 28.16323461 27.74119202 28.16323461 30 30 C21.42 30 12.84 30 4 30 C4 27.36 4 24.72 4 22 C-0.95 22.495 -0.95 22.495 -6 23 C-6.66 24.98 -7.32 26.96 -8 29 C-7.34 29.33 -6.68 29.66 -6 30 C-8.64 30 -11.28 30 -14 30 C-13.57589844 29.175 -13.15179687 28.35 -12.71484375 27.5 C-8.1302416 18.47186039 -3.97794929 9.31009408 0 0 Z " fill="#F4F3FE" transform="translate(1091,686)"/>
<path d="M0 0 C1 2 1 2 0.44140625 4.1640625 C-0.37239583 6.44270833 -1.18619792 8.72135417 -2 11 C1.3 11.99 4.6 12.98 8 14 C8 17.96 8 21.92 8 26 C1.25779037 26 1.25779037 26 -2.25 23.5625 C-3.24773438 22.88380859 -3.24773438 22.88380859 -4.265625 22.19140625 C-4.83796875 21.79824219 -5.4103125 21.40507813 -6 21 C-6.66 20.67 -7.32 20.34 -8 20 C-8.5775 20.61875 -9.155 21.2375 -9.75 21.875 C-12.50093521 24.47310548 -14.54322948 25.87940641 -18.359375 26.1953125 C-20.57291667 26.13020833 -22.78645833 26.06510417 -25 26 C-25 22.04 -25 18.08 -25 14 C-22.4940625 13.5978125 -22.4940625 13.5978125 -19.9375 13.1875 C-14.68879214 11.81444885 -12.75521879 9.977672 -9.9375 5.375 C-9.41027344 4.39273438 -8.88304687 3.41046875 -8.33984375 2.3984375 C-6.0814326 -1.64431599 -4.15592148 -1.17218298 0 0 Z " fill="#F6ECF3" transform="translate(629,844)"/>
<path d="M0 0 C2.89640118 -0.08120751 5.79050912 -0.14059421 8.6875 -0.1875 C9.50412109 -0.21263672 10.32074219 -0.23777344 11.16210938 -0.26367188 C15.94015822 -0.32170486 19.13423093 -0.14903871 23 3 C24.45147903 5.90295805 24.37239025 7.77261779 24 11 C22.52631484 13.27751344 20.88564762 15.02007 19 17 C20.43239585 18.79574993 21.8711004 20.58646907 23.3125 22.375 C24.11300781 23.37273438 24.91351562 24.37046875 25.73828125 25.3984375 C27.91621686 28.13480753 27.91621686 28.13480753 31 30 C22.15879828 30.77253219 22.15879828 30.77253219 18.1875 28.125 C15.28175673 23.97393819 13.10020497 19.60257686 11 15 C11.639375 14.71125 12.27875 14.4225 12.9375 14.125 C15.15206079 13.17176549 15.15206079 13.17176549 16 11 C16.0689472 9.62657169 16.08467708 8.24997898 16.0625 6.875 C16.041875 5.59625 16.02125 4.3175 16 3 C13.69 2.67 11.38 2.34 9 2 C9.13837796 6.29194146 9.28695939 10.58346929 9.4375 14.875 C9.47681641 16.09832031 9.51613281 17.32164062 9.55664062 18.58203125 C9.61948242 20.33193359 9.61948242 20.33193359 9.68359375 22.1171875 C9.72025146 23.19597168 9.75690918 24.27475586 9.79467773 25.38623047 C9.83376643 27.98069536 9.83376643 27.98069536 11 30 C7.37 30 3.74 30 0 30 C0.66 29.34 1.32 28.68 2 28 C2.3115683 25.31473382 2.3115683 25.31473382 2.265625 22.1875 C2.26820312 21.02992188 2.27078125 19.87234375 2.2734375 18.6796875 C2.26570313 17.46539063 2.25796875 16.25109375 2.25 15 C2.25773437 13.78570313 2.26546875 12.57140625 2.2734375 11.3203125 C2.27085938 10.16273438 2.26828125 9.00515625 2.265625 7.8125 C2.26336914 6.74644531 2.26111328 5.68039062 2.25878906 4.58203125 C2.25880798 1.83676539 2.25880798 1.83676539 0 0 Z " fill="#F9F8FE" transform="translate(1125,686)"/>
<path d="M0 0 C0.10957031 0.94617188 0.21914063 1.89234375 0.33203125 2.8671875 C1.32312119 11.19660571 2.50377897 19.4573073 4.03442383 27.70654297 C4.89490947 32.55071745 5.44144651 37.0810246 5 42 C3.3203125 43.875 3.3203125 43.875 1.125 45 C0.40570313 45.391875 -0.31359375 45.78375 -1.0546875 46.1875 C-3 47 -3 47 -5 47 C-6.19781188 31.99071632 -7.38736547 17.06421272 -7 2 C-4.35261084 0.5393715 -3.10551666 0 0 0 Z " fill="#F4EBF5" transform="translate(452,855)"/>
<path d="M0 0 C2.89042338 2.32839661 4.971319 4.88276729 7.25 7.8125 C3.69210744 10.18442837 0.23182909 11.006446 -3.875 11.9375 C-5.05715088 12.20578613 -5.05715088 12.20578613 -6.26318359 12.47949219 C-14.45311992 14.189461 -22.42633974 14.19180604 -30.75 13.8125 C-22.60681307 3.73045904 -13.68329407 -5.90869517 0 0 Z " fill="#8581F1" transform="translate(1104.75,843.1875)"/>
<path d="M0 0 C3.65750545 7.31501089 3.15236363 15.20735407 3.16113281 23.23364258 C3.16609772 24.33214539 3.17106262 25.43064819 3.17617798 26.56243896 C3.19070975 30.17314287 3.19758319 33.78380299 3.203125 37.39453125 C3.20887968 39.9093984 3.21463738 42.42426555 3.22039795 44.93913269 C3.22954296 49.52800098 3.23585653 54.11685677 3.2388947 58.70573312 C3.24338954 65.45566095 3.26102015 72.20538771 3.2898953 78.95525438 C3.31408574 84.81361342 3.32183706 90.67190502 3.32357025 96.53030968 C3.32660329 99.02028187 3.33465358 101.51025307 3.34775543 104.00019264 C3.36473127 107.47139628 3.36295739 110.94210226 3.35644531 114.41333008 C3.3656601 115.44660934 3.37487488 116.47988861 3.3843689 117.54447937 C3.37601517 118.95952255 3.37601517 118.95952255 3.36749268 120.40315247 C3.36895924 121.2232974 3.3704258 122.04344233 3.3719368 122.88844013 C3 125 3 125 0 128 C0 85.76 0 43.52 0 0 Z " fill="#9995F0" transform="translate(521,582)"/>
<path d="M0 0 C4.29 0 8.58 0 13 0 C12.34 0.66 11.68 1.32 11 2 C10.6884317 4.68526618 10.6884317 4.68526618 10.734375 7.8125 C10.73179688 8.97007812 10.72921875 10.12765625 10.7265625 11.3203125 C10.73429687 12.53460937 10.74203125 13.74890625 10.75 15 C10.74226563 16.21429687 10.73453125 17.42859375 10.7265625 18.6796875 C10.72914062 19.83726562 10.73171875 20.99484375 10.734375 22.1875 C10.73663086 23.25355469 10.73888672 24.31960938 10.74121094 25.41796875 C10.74119202 28.16323461 10.74119202 28.16323461 13 30 C9.37 30 5.74 30 2 30 C2.33 29.34 2.66 28.68 3 28 C3.27009369 23.67195316 3.23159014 19.33552199 3.25 15 C3.270625 13.78570313 3.29125 12.57140625 3.3125 11.3203125 C3.32023437 9.58394531 3.32023437 9.58394531 3.328125 7.8125 C3.3374707 6.74644531 3.34681641 5.68039062 3.35644531 4.58203125 C3.23881836 3.72996094 3.12119141 2.87789062 3 2 C2.01 1.34 1.02 0.68 0 0 Z " fill="#FBFAFE" transform="translate(1108,686)"/>
<path d="M0 0 C1.65 1.65 3.3 3.3 5 5 C4.01 5 3.02 5 2 5 C2 29.75 2 54.5 2 80 C2.66 80 3.32 80 4 80 C3.67 80.99 3.34 81.98 3 83 C-0.071508 78.81036407 -0.41692317 75.30769689 -0.34057617 70.2722168 C-0.34101425 69.51070816 -0.34145233 68.74919952 -0.34190369 67.96461487 C-0.3398214 65.45921779 -0.31651744 62.95449825 -0.29296875 60.44921875 C-0.28737079 58.70758937 -0.28310163 56.96595526 -0.28010559 55.22431946 C-0.26867256 50.64902617 -0.23921871 46.07402035 -0.20599365 41.49884033 C-0.17525949 36.8267404 -0.16159311 32.15459384 -0.14648438 27.48242188 C-0.11434748 18.32148855 -0.06316981 9.16076822 0 0 Z " fill="#908DE4" transform="translate(551,628)"/>
<path d="M0 0 C2 3 2 3 1.6875 5.125 C1 7 1 7 0 8 C-0.12290718 9.65644366 -0.17783908 11.31798993 -0.20532227 12.97875977 C-0.22526749 14.03978409 -0.24521271 15.10080841 -0.26576233 16.19398499 C-0.28247482 17.348134 -0.29918732 18.50228302 -0.31640625 19.69140625 C-0.33718735 20.86638168 -0.35796844 22.04135712 -0.37937927 23.25193787 C-0.44500124 27.02206324 -0.5038183 30.79226082 -0.5625 34.5625 C-0.6056732 37.11133573 -0.64928708 39.66016403 -0.69335938 42.20898438 C-0.80069545 48.47257892 -0.9024379 54.73624601 -1 61 C-3.64 61 -6.28 61 -9 61 C-9.74507544 54.62694402 -10.10349817 48.41688675 -10 42 C-9.34 42.33 -8.68 42.66 -8 43 C-6.91820239 46.776086 -6.89456013 50.40497142 -6.9375 54.3125 C-6.94652344 55.38113281 -6.95554687 56.44976563 -6.96484375 57.55078125 C-6.97644531 58.35902344 -6.98804688 59.16726563 -7 60 C-5.515 59.505 -5.515 59.505 -4 59 C-3.67 41.84 -3.34 24.68 -3 7 C-2.01 6.67 -1.02 6.34 0 6 C0 4.02 0 2.04 0 0 Z " fill="#DCD4FB" transform="translate(722,809)"/>
<path d="M0 0 C1.32 4.62 2.64 9.24 4 14 C-1.12333602 14 -2.99858382 13.89250429 -7.375 12 C-8.24898438 11.62875 -9.12296875 11.2575 -10.0234375 10.875 C-11.00183594 10.441875 -11.00183594 10.441875 -12 10 C-12 9.01 -12 8.02 -12 7 C-10.3203125 5.4296875 -10.3203125 5.4296875 -8.125 3.875 C-7.40570313 3.35679687 -6.68640625 2.83859375 -5.9453125 2.3046875 C-2.50898204 0 -2.50898204 0 0 0 Z " fill="#8883ED" transform="translate(477,845)"/>
<path d="M0 0 C3.56311466 1.78155733 5.35645475 3.16763009 8 6 C6.47291037 9.43595166 4.40072955 12.11912454 2 15 C-2.2742558 13.4169423 -4.26531794 10.49431596 -7 7 C-4.69 4.69 -2.38 2.38 0 0 Z " fill="#FAF0F1" transform="translate(548,878)"/>
<path d="M0 0 C3.36591866 1.44253657 5.51047079 3.33264727 8 6 C6.47291037 9.43595166 4.40072955 12.11912454 2 15 C-1.35915158 13.56036361 -3.71624938 11.87583411 -6 9 C-6.10654689 5.69704631 -4.70826336 4.68691678 -2.4375 2.25 C-1.633125 1.5075 -0.82875 0.765 0 0 Z " fill="#F5ECF5" transform="translate(826,828)"/>
<path d="M0 0 C3.36591866 1.44253657 5.51047079 3.33264727 8 6 C6.68775452 9.93673644 5.08089673 12.22719294 2 15 C-1.36591866 13.55746343 -3.51047079 11.66735273 -6 9 C-4.47291037 5.56404834 -2.40072955 2.88087546 0 0 Z " fill="#F4EBF5" transform="translate(619,820)"/>
<path d="M0 0 C1.670625 0.061875 1.670625 0.061875 3.375 0.125 C1.375 2.125 1.375 2.125 -1.25 2.25 C-2.03375 2.20875 -2.8175 2.1675 -3.625 2.125 C-3.625 2.785 -3.625 3.445 -3.625 4.125 C9.905 4.125 23.435 4.125 37.375 4.125 C37.705 3.465 38.035 2.805 38.375 2.125 C38.045 3.445 37.715 4.765 37.375 6.125 C23.515 6.125 9.655 6.125 -4.625 6.125 C-4.955 4.805 -5.285 3.485 -5.625 2.125 C-3.625 0.125 -3.625 0.125 0 0 Z " fill="#8582E1" transform="translate(666.625,712.875)"/>
<path d="M0 0 C2.31 0.33 4.62 0.66 7 1 C8.42041821 3.84083641 8.31452272 5.85477278 8 9 C6.1329009 11.30275556 4.64352259 12.67823871 2 14 C1.53101037 16.8159849 1.53101037 16.8159849 1.375 20.0625 C1.30023437 21.16722656 1.22546875 22.27195312 1.1484375 23.41015625 C1.09945313 24.26480469 1.05046875 25.11945312 1 26 C0.67 26 0.34 26 0 26 C0 17.42 0 8.84 0 0 Z " fill="#8D8AEF" transform="translate(1134,688)"/>
<path d="M0 0 C3.67561762 9.53168636 3.67561762 9.53168636 2 14 C1.67 14.33 1.34 14.66 1 15 C0.87709282 16.65644366 0.82216092 18.31798993 0.79467773 19.97875977 C0.77473251 21.03978409 0.75478729 22.10080841 0.73423767 23.19398499 C0.71752518 24.348134 0.70081268 25.50228302 0.68359375 26.69140625 C0.66281265 27.86638168 0.64203156 29.04135712 0.62062073 30.25193787 C0.55499876 34.02206324 0.4961817 37.79226082 0.4375 41.5625 C0.3943268 44.11133573 0.35071292 46.66016403 0.30664062 49.20898438 C0.19930455 55.47257892 0.0975621 61.73624601 0 68 C-1.32 67.67 -2.64 67.34 -4 67 C-3.01 67 -2.02 67 -1 67 C-1.00222061 66.33823257 -1.00444122 65.67646515 -1.00672913 64.99464417 C-1.02877965 58.1333978 -1.04390562 51.27216143 -1.05493164 44.41088867 C-1.0599737 41.84708243 -1.06680714 39.28327909 -1.07543945 36.71948242 C-1.08751064 33.04344979 -1.09322942 29.36745502 -1.09765625 25.69140625 C-1.10281754 24.53725723 -1.10797882 23.38310822 -1.11329651 22.19398499 C-1.11337204 21.13296066 -1.11344757 20.07193634 -1.11352539 18.97875977 C-1.115746 18.03944107 -1.11796661 17.10012238 -1.12025452 16.13233948 C-1 14 -1 14 0 13 C-0.08984301 11.14227838 -0.24611861 9.28752015 -0.4375 7.4375 C-0.59025391 5.91962891 -0.59025391 5.91962891 -0.74609375 4.37109375 C-0.82988281 3.58863281 -0.91367187 2.80617188 -1 2 C-3.31 2.33 -5.62 2.66 -8 3 C-5.53387212 -0.1151089 -3.89156016 -0.31553191 0 0 Z " fill="#EBE3FD" transform="translate(902,802)"/>
<path d="M0 0 C0.66 0 1.32 0 2 0 C2 0.66 2 1.32 2 2 C3.32 2.66 4.64 3.32 6 4 C6 8.68091299 5.00354129 9.62101604 2 13 C-1.36591866 11.55746343 -3.51047079 9.66735273 -6 7 C-5.04882866 5.8274869 -4.08882991 4.66212985 -3.125 3.5 C-2.59132813 2.8503125 -2.05765625 2.200625 -1.5078125 1.53125 C-0.76144531 0.77328125 -0.76144531 0.77328125 0 0 Z " fill="#EBE2FC" transform="translate(1021,877)"/>
<path d="M0 0 C2.91517292 1.07401108 4.77810176 1.77810176 7 4 C6.74739753 7.78903708 4.72150557 9.54186593 2 12 C-1.91402949 10.73058503 -3.79072873 9.48832306 -6 6 C-4.02 4.02 -2.04 2.04 0 0 Z " fill="#FAF0F1" transform="translate(1007,879)"/>
<path d="M0 0 C0.33 0 0.66 0 1 0 C1 26.07 1 52.14 1 79 C-0.65 77.35 -2.3 75.7 -4 74 C-3.01 74 -2.02 74 -1 74 C-0.67 49.58 -0.34 25.16 0 0 Z " fill="#9C98EC" transform="translate(619,593)"/>
<path d="M0 0 C-3.20406462 2.13604308 -3.99600747 2.24208908 -7.66796875 2.1953125 C-8.56064453 2.18886719 -9.45332031 2.18242188 -10.37304688 2.17578125 C-11.76620117 2.15064453 -11.76620117 2.15064453 -13.1875 2.125 C-14.12787109 2.11597656 -15.06824219 2.10695313 -16.03710938 2.09765625 C-18.35818157 2.07409207 -20.67912289 2.03822121 -23 2 C-23 5.3 -23 8.6 -23 12 C-14.24034738 11.45520982 -5.65437017 10.45892001 3 9 C-0.71363806 12.71363806 -5.57178117 13.11395609 -10.62109375 13.1953125 C-12.22668007 13.18220567 -13.83221245 13.15863213 -15.4375 13.125 C-16.26443359 13.11597656 -17.09136719 13.10695313 -17.94335938 13.09765625 C-19.96236708 13.07431512 -21.98122356 13.03845288 -24 13 C-24 9.04 -24 5.08 -24 1 C-20.75074502 0.63730641 -17.50093228 0.28453478 -14.25 -0.0625 C-12.86941406 -0.2181543 -12.86941406 -0.2181543 -11.4609375 -0.37695312 C-10.12675781 -0.51713867 -10.12675781 -0.51713867 -8.765625 -0.66015625 C-7.54020996 -0.79369507 -7.54020996 -0.79369507 -6.29003906 -0.92993164 C-3.98031789 -1.00060221 -2.1994609 -0.67352969 0 0 Z " fill="#F1E8FD" transform="translate(540,857)"/>
<path d="M0 0 C0.99 0.33 1.98 0.66 3 1 C3.02886537 5.31248609 3.04675255 9.62494762 3.0625 13.9375 C3.07087891 15.16919922 3.07925781 16.40089844 3.08789062 17.66992188 C3.09111328 18.83974609 3.09433594 20.00957031 3.09765625 21.21484375 C3.10289307 22.29886475 3.10812988 23.38288574 3.11352539 24.49975586 C3 27 3 27 2 28 C0.00041636 28.04080783 -2.00045254 28.04254356 -4 28 C-4.66 26.68 -5.32 25.36 -6 24 C-3.69 24.66 -1.38 25.32 1 26 C0.67 17.42 0.34 8.84 0 0 Z " fill="#9A96EF" transform="translate(1109,687)"/>
<path d="M0 0 C0.33 3.63 0.66 7.26 1 11 C0.34 11 -0.32 11 -1 11 C-1.33 8.69 -1.66 6.38 -2 4 C-2.99 4 -3.98 4 -5 4 C-4.87882812 4.68513672 -4.75765625 5.37027344 -4.6328125 6.07617188 C-4.08154688 9.21626566 -3.54070405 12.35807108 -3 15.5 C-2.71382813 17.11648438 -2.71382813 17.11648438 -2.421875 18.765625 C-1.42549235 24.60158054 -0.77009919 30.08005402 -1 36 C-1.33 36 -1.66 36 -2 36 C-3.65 25.44 -5.3 14.88 -7 4 C-2 0 -2 0 0 0 Z " fill="#8E88E4" transform="translate(458,853)"/>
<path d="M0 0 C4.30398191 6.45597287 4.30398191 6.45597287 3.55688477 10.25073242 C3.37311279 11.15799072 3.18934082 12.06524902 3 13 C2.92029098 15.20322602 2.89227688 17.40863682 2.90234375 19.61328125 C2.90556641 20.86044922 2.90878906 22.10761719 2.91210938 23.39257812 C2.92048828 24.68615234 2.92886719 25.97972656 2.9375 27.3125 C2.94201172 28.62541016 2.94652344 29.93832031 2.95117188 31.29101562 C2.96294051 34.5273901 2.9793824 37.76367178 3 41 C2.34 41 1.68 41 1 41 C-0.91700134 16.55823293 -0.91700134 16.55823293 0.53515625 9.33984375 C1.18200619 6.08385117 0.57195172 3.24105977 0 0 Z " fill="#928CE5" transform="translate(1073,804)"/>
<path d="M0 0 C0.66 0.33 1.32 0.66 2 1 C1.98839844 1.93457031 1.97679687 2.86914062 1.96484375 3.83203125 C1.89095491 14.58813582 2.34656952 25.26507073 3 36 C2.34 35.67 1.68 35.34 1 35 C0.62109375 31.9453125 0.62109375 31.9453125 0.4375 28.125 C0.20468158 22.97193974 0.20468158 22.97193974 -1 18 C-1.09636449 15.11473389 -1.13927947 12.25945222 -1.125 9.375 C-1.12886719 8.58609375 -1.13273438 7.7971875 -1.13671875 6.984375 C-1.12665394 1.12665394 -1.12665394 1.12665394 0 0 Z " fill="#928DE6" transform="translate(890,806)"/>
<path d="M0 0 C0.33 0 0.66 0 1 0 C1.22479546 7.50775207 0.54907902 14.69638637 -0.5 22.125 C-0.64308594 23.176875 -0.78617188 24.22875 -0.93359375 25.3125 C-1.28314497 27.87587562 -1.63870406 30.43825808 -2 33 C-2.66 33 -3.32 33 -4 33 C-4.33 33.99 -4.66 34.98 -5 36 C-4.855625 34.99195313 -4.71125 33.98390625 -4.5625 32.9453125 C-3.15997709 23.10817261 -1.83772415 13.3389643 -1.24609375 3.4140625 C-1 1 -1 1 0 0 Z " fill="#928FE9" transform="translate(902,624)"/>
<path d="M0 0 C3.36591866 1.44253657 5.51047079 3.33264727 8 6 C6.47291037 9.43595166 4.40072955 12.11912454 2 15 C-1.875 13.25 -1.875 13.25 -3 11 C-2.401875 11.226875 -1.80375 11.45375 -1.1875 11.6875 C1.03926569 12.26058137 1.03926569 12.26058137 2.6875 10.8125 C4.10185661 8.85934088 4.59316505 7.35964273 5 5 C4.34 5 3.68 5 3 5 C3 4.34 3 3.68 3 3 C-1.24822374 3.47202486 -3.19989709 5.96655518 -6 9 C-6 6 -6 6 -4.6875 4.39453125 C-4.130625 3.87246094 -3.57375 3.35039063 -3 2.8125 C-2.443125 2.28269531 -1.88625 1.75289062 -1.3125 1.20703125 C-0.6628125 0.60955078 -0.6628125 0.60955078 0 0 Z " fill="#EDE4FD" transform="translate(548,878)"/>
<path d="M0 0 C0.33 0 0.66 0 1 0 C0.98839844 1.00160156 0.97679687 2.00320313 0.96484375 3.03515625 C0.95545602 4.37760228 0.94635688 5.72005036 0.9375 7.0625 C0.92589844 8.37347656 0.91429687 9.68445313 0.90234375 11.03515625 C0.99456016 14.77914246 1.4363556 18.30302534 2 22 C2 23.32 2 24.64 2 26 C-2.46418051 19.30372924 -3.11606599 12.58995119 -1.546875 4.73046875 C-1.09197444 3.1350675 -0.55577686 1.56312243 0 0 Z " fill="#E6DDFA" transform="translate(808,864)"/>
<path d="M0 0 C0.33 0 0.66 0 1 0 C1 3.96 1 7.92 1 12 C-5 12 -5 12 -7 11 C-8.32 14.3 -9.64 17.6 -11 21 C-11.33 21 -11.66 21 -12 21 C-12.43200679 16.24792529 -10.98489083 13.21789302 -9 9 C-7.865625 9.020625 -6.73125 9.04125 -5.5625 9.0625 C-2.18424326 9.41577477 -2.18424326 9.41577477 -1 8 C-0.76924918 6.65252916 -0.58846937 5.29622435 -0.4375 3.9375 C-0.293125 2.638125 -0.14875 1.33875 0 0 Z " fill="#E2DAF9" transform="translate(975,858)"/>
<path d="M0 0 C0.33 0 0.66 0 1 0 C1.33 1.65 1.66 3.3 2 5 C2.33 5 2.66 5 3 5 C3 6.65 3 8.3 3 10 C7.85436767 10.57110208 10.14015155 8.7922308 14 6 C15.3191582 5.30570621 16.64649406 4.62469505 18 4 C15.79487586 8.53275518 13.76382227 10.32384031 9 12 C5.94967321 12.22927293 3.06738794 12.13942672 0 12 C0 8.04 0 4.08 0 0 Z " fill="#E8DFFA" transform="translate(604,858)"/>
<path d="M0 0 C2.29113732 2.1907039 3.6975667 4.09457188 5 7 C4.34 7 3.68 7 3 7 C1.32246673 12.30748972 0.45294973 17.40907924 -0.125 22.9375 C-0.25455078 24.10635742 -0.25455078 24.10635742 -0.38671875 25.29882812 C-0.59651323 27.1986337 -0.79901994 29.09924174 -1 31 C-1.33 31 -1.66 31 -2 31 C-2.1391722 23.88868736 -1.73492545 16.94617463 -1 9.875 C-0.85691406 8.44027344 -0.85691406 8.44027344 -0.7109375 6.9765625 C-0.4783375 4.65056246 -0.24130321 2.32511041 0 0 Z " fill="#8E8CE3" transform="translate(913,638)"/>
<path d="M0 0 C0 2.97 0 5.94 0 9 C6.72981569 11.53747149 12.8267581 12.61117007 20 13 C20 13.33 20 13.66 20 14 C4.07061503 14.55353075 4.07061503 14.55353075 -2 11 C-2 8.03 -2 5.06 -2 2 C-3.32 1.67 -4.64 1.34 -6 1 C-4 0 -4 0 0 0 Z " fill="#8883E3" transform="translate(565,857)"/>
<path d="M0 0 C0 0.66 0 1.32 0 2 C-1.47704212 3.25227484 -2.95827399 4.50166522 -4.4921875 5.68359375 C-6.26762944 7.11764091 -6.26762944 7.11764091 -8 10 C-8.2502157 13.08365871 -8.2502157 13.08365871 -8 16 C-7.67 16.33 -7.34 16.66 -7 17 C-6.95936168 18.66617115 -6.957279 20.33388095 -7 22 C-10.16261997 18.5623696 -10.84018106 15.63474925 -11 11 C-9.44741099 6.43356174 -5.4658389 0 0 0 Z " fill="#ECE4FB" transform="translate(852,844)"/>
<path d="M0 0 C0.185625 0.61875 0.37125 1.2375 0.5625 1.875 C2.29872924 4.44159974 3.83297324 4.98888803 6.8046875 5.69140625 C13.17733144 6.58720495 19.71363331 6.35921442 26 5 C25.67 5.66 25.34 6.32 25 7 C16.68914536 9.62448041 9.89029168 10.10295167 2 6 C1.34 5.34 0.68 4.68 0 4 C0 2.68 0 1.36 0 0 Z " fill="#F5ECFD" transform="translate(813,878)"/>
<path d="M0 0 C0.99 0.33 1.98 0.66 3 1 C3 1.99 3 2.98 3 4 C3.66 4 4.32 4 5 4 C7.35786503 7.89604307 8.96308201 10.94783742 9.125 15.5625 C7.67161771 20.00339032 5.25532003 22.72476975 2 26 C1.34 25.67 0.68 25.34 0 25 C0.42152344 24.55269531 0.84304688 24.10539063 1.27734375 23.64453125 C1.82519531 23.03996094 2.37304688 22.43539062 2.9375 21.8125 C3.48277344 21.22082031 4.02804687 20.62914062 4.58984375 20.01953125 C6.3334415 17.52246744 6.89194542 16.05704421 7 13 C5.60467543 9.83347529 5.60467543 9.83347529 3.5625 6.75 C0 1.0332681 0 1.0332681 0 0 Z " fill="#ECE4FD" transform="translate(954,851)"/>
<path d="M0 0 C0.8353125 0.37125 0.8353125 0.37125 1.6875 0.75 C1.5 3.125 1.5 3.125 0.6875 5.75 C-1.6875 7.1875 -1.6875 7.1875 -4.3125 7.75 C-5.3025 7.09 -6.2925 6.43 -7.3125 5.75 C-7.3125 5.09 -7.3125 4.43 -7.3125 3.75 C-3.10958131 -0.33617095 -3.10958131 -0.33617095 0 0 Z " fill="#F7EEF2" transform="translate(1023.3125,880.25)"/>
<path d="M0 0 C0.99 0.495 0.99 0.495 2 1 C3.08179761 4.776086 3.10543987 8.40497142 3.0625 12.3125 C3.05347656 13.38113281 3.04445313 14.44976563 3.03515625 15.55078125 C3.02355469 16.35902344 3.01195312 17.16726563 3 18 C4.65 18 6.3 18 8 18 C8 18.33 8 18.66 8 19 C5.69 19 3.38 19 1 19 C0.25492456 12.62694402 -0.10349817 6.41688675 0 0 Z " fill="#E9E1FB" transform="translate(712,851)"/>
<path d="M0 0 C8.62332703 -0.88528452 14.17443667 0.59273555 21 6 C23.625 8.875 23.625 8.875 25 11 C24.01 11 23.02 11 22 11 C21.13375 10.071875 20.2675 9.14375 19.375 8.1875 C14.23953466 2.78442977 7.15119088 1.76076499 0 1 C0 0.67 0 0.34 0 0 Z " fill="#EDE5FD" transform="translate(1093,829)"/>
<path d="M0 0 C0.99 0.33 1.98 0.66 3 1 C3.33 1.99 3.66 2.98 4 4 C4.66 4.66 5.32 5.32 6 6 C5.2575 6.268125 4.515 6.53625 3.75 6.8125 C0.97863667 7.8599379 0.97863667 7.8599379 -1.0625 9.6875 C-3 11 -3 11 -5.25 10.6875 C-5.8275 10.460625 -6.405 10.23375 -7 10 C-5.73134318 7.46268636 -4.50290879 7.21353154 -2 6 C-1.34 5.34 -0.68 4.68 0 4 C0 2.68 0 1.36 0 0 Z " fill="#918CEA" transform="translate(1013,882)"/>
<path d="M0 0 C3.31012244 3.31012244 3.50351065 4.53159589 4 9 C1.69 9 -0.62 9 -3 9 C-2.01 6.03 -1.02 3.06 0 0 Z " fill="#8A87E7" transform="translate(1089,697)"/>
<path d="M0 0 C1.11132812 3.79052734 1.11132812 3.79052734 0.109375 5.67578125 C-0.33921875 6.21589844 -0.7878125 6.75601563 -1.25 7.3125 C-3.89685157 10.71875467 -5.44327003 13.98527534 -7 18 C-7.66 18 -8.32 18 -9 18 C-9 18.99 -9 19.98 -9 21 C-9.66 21 -10.32 21 -11 21 C-9.3003494 16.26525903 -6.86340973 12.03832889 -4.375 7.6875 C-3.95476563 6.94693359 -3.53453125 6.20636719 -3.1015625 5.44335938 C-2.07051505 3.62730989 -1.03563954 1.81343467 0 0 Z " fill="#8C89E8" transform="translate(994,660)"/>
<path d="M0 0 C7.425 0.99 7.425 0.99 15 2 C13 8 13 8 11 10 C11.33 8.35 11.66 6.7 12 5 C6.06 3.515 6.06 3.515 0 2 C0 1.34 0 0.68 0 0 Z " fill="#E9E1FD" transform="translate(564,845)"/>
<path d="M0 0 C-1.66666667 3.33333333 -3.33333333 6.66666667 -5 10 C-5.99 10 -6.98 10 -8 10 C-7.55090939 8.51800098 -7.09043436 7.03944764 -6.625 5.5625 C-6.36976562 4.73878906 -6.11453125 3.91507813 -5.8515625 3.06640625 C-4.5336171 -0.13172731 -3.38699903 0 0 0 Z " fill="#EBEBFD" transform="translate(1091,696)"/>
<path d="M0 0 C5.28 0.66 10.56 1.32 16 2 C13.61775072 4.38224928 12.9497963 4.32017149 9.6875 4.375 C8.92824219 4.40335938 8.16898438 4.43171875 7.38671875 4.4609375 C5 4 5 4 0 0 Z " fill="#EAE2FD" transform="translate(936,887)"/>
<path d="M0 0 C0.66 0.33 1.32 0.66 2 1 C0.47291037 4.43595166 -1.59927045 7.11912454 -4 10 C-7.875 8.25 -7.875 8.25 -9 6 C-7.8553125 6.0928125 -7.8553125 6.0928125 -6.6875 6.1875 C-3.99550511 6.24402891 -3.99550511 6.24402891 -2.25 4.6875 C-0.79696921 2.90853321 -0.79696921 2.90853321 0 0 Z " fill="#EBE2FD" transform="translate(832,833)"/>
<path d="M0 0 C0.33 0 0.66 0 1 0 C1.33848652 1.89492006 1.67056911 3.79098466 2 5.6875 C2.185625 6.74324219 2.37125 7.79898438 2.5625 8.88671875 C2.95068074 11.64904062 3.08259976 14.21742043 3 17 C2.34 17 1.68 17 1 17 C0.63601378 14.91835982 0.28416713 12.83459438 -0.0625 10.75 C-0.25972656 9.58984375 -0.45695313 8.4296875 -0.66015625 7.234375 C-0.9606216 4.37477376 -0.9439206 2.66674071 0 0 Z " fill="#E1D9FB" transform="translate(852,847)"/>
<path d="M0 0 C3.16115776 1.36983503 3.9927092 1.9890638 6 5 C5.01 5 4.02 5 3 5 C3 4.34 3 3.68 3 3 C-1.24822374 3.47202486 -3.19989709 5.96655518 -6 9 C-6 6 -6 6 -4.6875 4.39453125 C-4.130625 3.87246094 -3.57375 3.35039063 -3 2.8125 C-2.443125 2.28269531 -1.88625 1.75289062 -1.3125 1.20703125 C-0.6628125 0.60955078 -0.6628125 0.60955078 0 0 Z " fill="#E4DCFD" transform="translate(548,878)"/>
<path d="M0 0 C1.32 0.66 2.64 1.32 4 2 C3.401875 2.268125 2.80375 2.53625 2.1875 2.8125 C-0.87260694 4.47370091 -2.62664277 5.81204519 -3.6875 9.1875 C-3.790625 9.785625 -3.89375 10.38375 -4 11 C-4.66 9.68 -5.32 8.36 -6 7 C-4.02 4.69 -2.04 2.38 0 0 Z " fill="#EBE3FD" transform="translate(619,820)"/>
<path d="M0 0 C0.99 0.33 1.98 0.66 3 1 C0.36 3.64 -2.28 6.28 -5 9 C-5.66 8.34 -6.32 7.68 -7 7 C-4.69 4.69 -2.38 2.38 0 0 Z " fill="#E8DFFA" transform="translate(1080,847)"/>
<path d="M0 0 C2.91517292 1.07401108 4.77810176 1.77810176 7 4 C6.75 6.0625 6.75 6.0625 6 8 C5.01 8.495 5.01 8.495 4 9 C3.731875 8.05125 3.46375 7.1025 3.1875 6.125 C2.25013412 2.74732727 2.25013412 2.74732727 -1 1 C-0.67 0.67 -0.34 0.34 0 0 Z " fill="#EDE5FC" transform="translate(1007,879)"/>
<path d="M0 0 C1.98 0 3.96 0 6 0 C5.34 0.66 4.68 1.32 4 2 C3.01 2 2.02 2 1 2 C1 2.66 1 3.32 1 4 C2.32 4.66 3.64 5.32 5 6 C4.67 6.66 4.34 7.32 4 8 C2.35 6.68 0.7 5.36 -1 4 C-0.67 2.68 -0.34 1.36 0 0 Z " fill="#ECE4FD" transform="translate(931,879)"/>
<path d="M0 0 C4.49797113 1.68673918 8.72886302 3.81673892 13 6 C10.47518613 6.93616694 9.40525028 7.17818983 6.89453125 6.07421875 C6.20746094 5.61660156 5.52039063 5.15898438 4.8125 4.6875 C4.11769531 4.23761719 3.42289063 3.78773438 2.70703125 3.32421875 C1 2 1 2 0 0 Z " fill="#ECE3FD" transform="translate(622,863)"/>
<path d="M0 0 C0.66 0 1.32 0 2 0 C2.02578125 0.77085937 2.0515625 1.54171875 2.078125 2.3359375 C2.13484375 3.33882812 2.1915625 4.34171875 2.25 5.375 C2.29640625 6.37273438 2.3428125 7.37046875 2.390625 8.3984375 C2.72160885 11.1526477 2.72160885 11.1526477 5.046875 12.3515625 C5.69140625 12.56554687 6.3359375 12.77953125 7 13 C6.67 13.66 6.34 14.32 6 15 C2.93472486 12.64209605 1.27957513 11.2895895 0.4453125 7.44140625 C0.21263345 4.9559709 0.05329987 2.49540286 0 0 Z " fill="#E9E1FA" transform="translate(457,852)"/>
<path d="M0 0 C0.66 1.98 1.32 3.96 2 6 C1.01 5.67 0.02 5.34 -1 5 C-1 3.68 -1 2.36 -1 1 C-1.94875 1.515625 -2.8975 2.03125 -3.875 2.5625 C-4.90625 3.036875 -5.9375 3.51125 -7 4 C-7.66 3.67 -8.32 3.34 -9 3 C-5.92807025 0.26939578 -4.09590633 -0.34132553 0 0 Z " fill="#E6DEFC" transform="translate(720,802)"/>
<path d="M0 0 C0 0.99 0 1.98 0 3 C0.90833725 5.06669397 0.90833725 5.06669397 2 7 C2.33 7.66 2.66 8.32 3 9 C0.11424181 8.60196439 -0.82189513 8.20990931 -2.75 5.9375 C-3.1625 5.298125 -3.575 4.65875 -4 4 C-2.68 2.68 -1.36 1.36 0 0 Z " fill="#E8E0FC" transform="translate(1005,881)"/>
<path d="M0 0 C3.31234384 1.16379648 5.8898219 2.11238786 8 5 C8 6.32 8 7.64 8 9 C5.47524538 7.73762269 4.53394597 6.2095347 2.875 3.9375 C2.33617187 3.20402344 1.79734375 2.47054687 1.2421875 1.71484375 C0.83226562 1.14894531 0.42234375 0.58304688 0 0 Z " fill="#E4DCF9" transform="translate(1105,843)"/>
<path d="M0 0 C-1.0625 1.5 -1.0625 1.5 -3 3 C-6.6875 3.1875 -6.6875 3.1875 -10 3 C-10.33 2.34 -10.66 1.68 -11 1 C-9.5437328 0.63743142 -8.08488815 0.28520207 -6.625 -0.0625 C-5.40683594 -0.35833984 -5.40683594 -0.35833984 -4.1640625 -0.66015625 C-2 -1 -2 -1 0 0 Z " fill="#E9E0FC" transform="translate(954,878)"/>
<path d="M0 0 C2.3129482 2.3129482 2.49580975 3.47904875 3.125 6.625 C3.29257812 7.44226563 3.46015625 8.25953125 3.6328125 9.1015625 C3.81457031 10.04128906 3.81457031 10.04128906 4 11 C3.01 11.495 3.01 11.495 2 12 C0.00214565 7.8794254 -0.17835515 4.54805635 0 0 Z " fill="#E4DDFD" transform="translate(951,839)"/>
<path d="M0 0 C4.41889613 1.35021826 6.34345343 3.26115668 9 7 C6 7 6 7 4.39453125 5.46875 C3.87246094 4.8190625 3.35039063 4.169375 2.8125 3.5 C2.28269531 2.8503125 1.75289062 2.200625 1.20703125 1.53125 C0.80871094 1.0259375 0.41039062 0.520625 0 0 Z " fill="#9390EB" transform="translate(571,625)"/>
<path d="M0 0 C0 3.3 0 6.6 0 10 C-0.99 10.495 -0.99 10.495 -2 11 C-2 8.03 -2 5.06 -2 2 C-3.32 1.67 -4.64 1.34 -6 1 C-4 0 -4 0 0 0 Z " fill="#9A94E4" transform="translate(565,857)"/>
<path d="M0 0 C1.32 1.32 2.64 2.64 4 4 C0.66666667 4.66666667 -2.66666667 5.33333333 -6 6 C-4 4 -2 2 0 0 Z " fill="#948EE6" transform="translate(621,863)"/>
<path d="M0 0 C2 1 2 1 3.125 3.25 C4.00513321 6.01613295 4.1645438 8.12048351 4 11 C0.85041169 7.57653445 0.43820891 4.55737263 0 0 Z " fill="#E2D9FC" transform="translate(841,855)"/>
<path d="M0 0 C5.32011893 -0.34886026 5.32011893 -0.34886026 8 0 C10 1.875 10 1.875 11 4 C11 4.66 11 5.32 11 6 C10.34 6 9.68 6 9 6 C8.38125 5.0409375 8.38125 5.0409375 7.75 4.0625 C5.40302106 1.29641768 3.51991219 1.31288108 0 1 C0 0.67 0 0.34 0 0 Z " fill="#E9E1FC" transform="translate(472,834)"/>
<path d="M0 0 C0.33 0.99 0.66 1.98 1 3 C-4.75 7 -4.75 7 -7 7 C-7 6.34 -7 5.68 -7 5 C-5.03277992 3.61876037 -3.03131672 2.28511874 -1 1 C-0.67 0.67 -0.34 0.34 0 0 Z " fill="#908AE8" transform="translate(848,888)"/>
<path d="M0 0 C0.185625 0.61875 0.37125 1.2375 0.5625 1.875 C2.71437233 5.05602866 5.37533763 5.19451947 9 6 C9 6.33 9 6.66 9 7 C3.54545455 7.36363636 3.54545455 7.36363636 1.125 5.75 C0 4 0 4 0 0 Z " fill="#E9E1FA" transform="translate(813,878)"/>
<path d="M0 0 C0.33 0 0.66 0 1 0 C1.26218749 3.14624993 1.24754367 4.61837017 -0.5 7.3125 C-1.2425 8.1478125 -1.2425 8.1478125 -2 9 C-2.99 8.67 -3.98 8.34 -5 8 C-4.54625 7.608125 -4.0925 7.21625 -3.625 6.8125 C-1.72357081 4.69167513 -0.93795972 2.66957765 0 0 Z " fill="#8F89E7" transform="translate(672,860)"/>
<path d="M0 0 C-3.4352048 2.29013653 -4.985331 2.17842973 -9 2 C-9.33 1.34 -9.66 0.68 -10 0 C-6.33694766 -0.74926071 -3.57644848 -1.2380014 0 0 Z " fill="#E7DEFC" transform="translate(540,857)"/>
<path d="M0 0 C2.83328987 2.83328987 3.7191375 4.35446828 5 8 C4.01 8.66 3.02 9.32 2 10 C1.34 6.7 0.68 3.4 0 0 Z " fill="#938DE2" transform="translate(845,868)"/>
<path d="M0 0 C3.48330216 0.64505596 6.09432866 1.98217268 9 4 C9 4.66 9 5.32 9 6 C5.06326356 4.68775452 2.77280706 3.08089673 0 0 Z " fill="#EBE2FD" transform="translate(1019,863)"/>
<path d="M0 0 C0.66 0.33 1.32 0.66 2 1 C1.79375 1.61875 1.5875 2.2375 1.375 2.875 C1.25125 3.57625 1.1275 4.2775 1 5 C1.66 5.66 2.32 6.32 3 7 C1.35 6.67 -0.3 6.34 -2 6 C-1.49396008 3.83125748 -1.00016187 2.00032373 0 0 Z " fill="#EBE3FA" transform="translate(1023,850)"/>
</svg>
